<?xml version="1.0" encoding="UTF-8"?>
<svg width="500px" height="500px" viewBox="0 0 500 500" version="1.1" xmlns="http://www.w3.org/2000/svg" xmlns:xlink="http://www.w3.org/1999/xlink">
    <title>Scpun新版</title>
    <g id="页面-1" stroke="none" stroke-width="1" fill="none" fill-rule="evenodd">
        <g id="Scpun新版">
            <g id="编组-4">
                <path d="M264.142136,14.1421356 L297.705047,47.7050473 C299.225074,49.2250737 300.490106,50.9802129 301.451456,52.902911 L347.018576,144.037152 C348.95385,147.9077 352.0923,151.04615 355.962848,152.981424 L447.097089,198.548544 C449.019787,199.509894 450.774926,200.774926 452.294953,202.294953 L485.857864,235.857864 C493.66835,243.66835 493.66835,256.33165 485.857864,264.142136 L452.294953,297.705047 C450.774926,299.225074 449.019787,300.490106 447.097089,301.451456 L355.962848,347.018576 C352.0923,348.95385 348.95385,352.0923 347.018576,355.962848 L301.451456,447.097089 C300.490106,449.019787 299.225074,450.774926 297.705047,452.294953 L264.142136,485.857864 C256.33165,493.66835 243.66835,493.66835 235.857864,485.857864 L202.294953,452.294953 C200.774926,450.774926 199.509894,449.019787 198.548544,447.097089 L152.981424,355.962848 C151.04615,352.0923 147.9077,348.95385 144.037152,347.018576 L52.902911,301.451456 C50.9802129,300.490106 49.2250737,299.225074 47.7050473,297.705047 L14.1421356,264.142136 C6.34947291,256.349473 6.33169046,243.726119 14.0887883,235.911409 L47.743,202.257 L48.089913,201.920287 C49.5187605,200.566196 51.1404377,199.429781 52.902911,198.548544 L144.037152,152.981424 C147.9077,151.04615 151.04615,147.9077 152.981424,144.037152 L198.548544,52.902911 C199.501966,50.9960684 200.754083,49.2540327 202.2574,47.7427001 L235.911,14.089 L236.1291,13.8759042 C243.958819,6.33268169 256.421425,6.42142549 264.142136,14.1421356 Z" id="形状结合" fill="#190C42"></path>
                <path d="M50,300 L150,350 L200,450 L50,300 Z M450,300 L300,450 L350,350 L450,300 Z M200,50 L150,150 L50,200 L200,50 Z M450,200 L350,150 L300,50 L450,200 Z" id="形状结合" fill="#FEAE01"></path>
                <g id="编组-3" transform="translate(150.000000, 50.000000)">
                    <path d="M150,0 L200,100 L150,100 L150,0 Z M50,100 L0,100 L50,0 L50,100 Z" id="形状结合" fill="#FFFFFF"></path>
                    <path d="M150,0 L100,100 L50,0 L150,0 Z" id="形状结合" fill="#FEAE01"></path>
                </g>
                <g id="编组-3" transform="translate(100.000000, 250.000000) rotate(-90.000000) translate(-100.000000, -250.000000) translate(0.000000, 200.000000)">
                    <path d="M150,0 L200,100 L150,100 L150,0 Z M50,100 L0,100 L50,0 L50,100 Z" id="形状结合" fill="#FFFFFF"></path>
                    <path d="M150,0 L100,100 L50,0 L150,0 Z" id="形状结合" fill="#FEAE01"></path>
                </g>
                <g id="编组-3" transform="translate(400.000000, 250.000000) scale(-1, 1) rotate(-90.000000) translate(-400.000000, -250.000000) translate(300.000000, 200.000000)">
                    <path d="M150,0 L200,100 L150,100 L150,0 Z M50,100 L0,100 L50,0 L50,100 Z" id="形状结合" fill="#FFFFFF"></path>
                    <path d="M150,0 L100,100 L50,0 L150,0 Z" id="形状结合" fill="#FEAE01"></path>
                </g>
                <g id="编组-3" transform="translate(250.000000, 400.000000) scale(1, -1) translate(-250.000000, -400.000000) translate(150.000000, 350.000000)">
                    <path d="M150,0 L200,100 L150,100 L150,0 Z M50,100 L0,100 L50,0 L50,100 Z" id="形状结合" fill="#FFFFFF"></path>
                    <path d="M150,0 L100,100 L50,0 L150,0 Z" id="形状结合" fill="#FEAE01"></path>
                </g>
            </g>
            <path d="M315,180 C317.761424,180 320,182.238576 320,185 L320,221.666667 C320,224.42809 317.761424,226.666667 315,226.666667 L293.888889,226.666667 C291.127465,226.666667 288.888889,224.42809 288.888889,221.666667 L288.888889,216.111111 C288.888889,213.349687 286.650313,211.111111 283.888889,211.111111 L216.111111,211.111111 C213.349687,211.111111 211.111111,213.349687 211.111111,216.111111 L211.111111,229.444444 C211.111111,232.205868 213.349687,234.444444 216.111111,234.444444 L315,234.444444 C317.761424,234.444444 320,236.683021 320,239.444444 L320,315 C320,317.761424 317.761424,320 315,320 L185,320 C182.238576,320 180,317.761424 180,315 L180,278.333333 C180,275.57191 182.238576,273.333333 185,273.333333 L206.111111,273.333333 C208.872535,273.333333 211.111111,275.57191 211.111111,278.333333 L211.111111,283.888889 C211.111111,286.650313 213.349687,288.888889 216.111111,288.888889 L283.888889,288.888889 C286.650313,288.888889 288.888889,286.650313 288.888889,283.888889 L288.888889,270.555556 C288.888889,267.794132 286.650313,265.555556 283.888889,265.555556 L185,265.555556 C182.238576,265.555556 180,263.316979 180,260.555556 L180,185 C180,182.238576 182.238576,180 185,180 L315,180 Z" id="形状结合" fill="#FFFFFF"></path>
        </g>
    </g>
</svg>